<?xml version="1.0" encoding="UTF-8" standalone="no"?>
<!-- Created with Inkscape (http://www.inkscape.org/) -->

<svg
   width="210mm"
   height="297mm"
   viewBox="0 0 210 297"
   version="1.1"
   id="svg5"
   xml:space="preserve"
   inkscape:version="1.2.2 (732a01da63, 2022-12-09, custom)"
   sodipodi:docname="download.svg"
   xmlns:inkscape="http://www.inkscape.org/namespaces/inkscape"
   xmlns:sodipodi="http://sodipodi.sourceforge.net/DTD/sodipodi-0.dtd"
   xmlns="http://www.w3.org/2000/svg"
   xmlns:svg="http://www.w3.org/2000/svg"><sodipodi:namedview
     id="namedview7"
     pagecolor="#505050"
     bordercolor="#eeeeee"
     borderopacity="1"
     inkscape:showpageshadow="0"
     inkscape:pageopacity="0"
     inkscape:pagecheckerboard="0"
     inkscape:deskcolor="#505050"
     inkscape:document-units="mm"
     showgrid="false"
     inkscape:zoom="0.93895903"
     inkscape:cx="317.37274"
     inkscape:cy="377.54576"
     inkscape:window-width="1854"
     inkscape:window-height="1016"
     inkscape:window-x="0"
     inkscape:window-y="0"
     inkscape:window-maximized="1"
     inkscape:current-layer="layer1" /><defs
     id="defs2" /><g
     inkscape:label="Layer 1"
     inkscape:groupmode="layer"
     id="layer1"><path
       d="M 76.409646,54.678991 H 75.621823 V 33.096831 A 12.491162,12.491162 0 0 0 63.130669,20.605664 H 17.405923 A 12.491159,12.491159 0 0 0 4.914735,33.096802 V 151.49823 a 12.491167,12.491167 0 0 0 12.491154,12.49118 H 63.130608 A 12.491167,12.491167 0 0 0 75.62181,151.49828 V 70.041535 h 0.787836 z"
       fill="#3f3d56"
       id="path152"
       style="stroke-width:0.264583;fill:#000000" /><rect
       style="fill:#000000;fill-opacity:1;stroke-width:0.139315"
       id="rect441-6"
       width="62.504379"
       height="9.906435"
       x="9.0240269"
       y="23.480104"
       ry="1.467211" /><path
       d="m 63.617664,23.343678 h -5.966757 c 1.188572,2.777994 -0.954921,5.8186 -4.102016,5.818827 H 27.361826 c -3.1471,-2.25e-4 -5.290595,-3.040837 -4.102017,-5.818835 l -6.073272,0.138711 C 12.03626,23.48237 8.3614358,27.323887 8.3614303,32.233754 V 144.90805 c -3.5e-6,4.90987 4.1751177,8.8901 9.3253927,8.8901 h 45.930841 c 5.150276,0 9.325402,-3.98022 9.325405,-8.89009 v 0 -112.674286 c 5e-6,-4.909869 -4.175125,-8.890104 -9.325405,-8.890096 z"
       fill="#ffffff"
       id="path154"
       style="stroke-width:0.258254;fill:#250c77;fill-opacity:1"
       sodipodi:nodetypes="scccccccsssccs" /><rect
       style="fill:#250c77;fill-opacity:1;stroke-width:0.154128"
       id="rect441"
       width="65.018143"
       height="11.656301"
       x="8.0179043"
       y="29.876196"
       ry="1.7263781" /><rect
       style="fill:#eb6800;fill-opacity:1;stroke-width:0.08333"
       id="rect441-5"
       width="65.018143"
       height="3.4072251"
       x="8.2942171"
       y="38.982548"
       ry="0.50463343" /><rect
       style="fill:#250c77;fill-opacity:1;stroke-width:0.154128"
       id="rect441-3"
       width="65.018143"
       height="11.656301"
       x="7.9171166"
       y="-156.82683"
       ry="1.7263781"
       transform="scale(1,-1)" /><rect
       style="fill:#eb6800;fill-opacity:1;stroke-width:0.08333"
       id="rect441-5-5"
       width="65.018143"
       height="3.4072251"
       x="8.1934299"
       y="-147.72049"
       ry="0.50463343"
       transform="scale(1,-1)" /><rect
       style="fill:#ffffff;fill-opacity:1;stroke-width:0.168886"
       id="rect2020"
       width="64.471222"
       height="102.19777"
       x="8.3893366"
       y="42.312302"
       ry="0" /><circle
       id="b5dcbba4-f290-467d-a612-e64d8f6895fb"
       data-name="Ellipse 44"
       cx="40.662189"
       cy="89.723717"
       fill="#eb6800"
       style="stroke-width:0.264583"
       r="22.343056" /><path
       d="m 47.282961,91.250471 -5.55625,5.722938 a 1.2631817,1.2631817 0 0 1 -0.926042,0.373062 h -0.01847 A 1.2736248,1.2736248 0 0 1 39.853448,96.973409 L 34.29991,91.250471 c -0.01847,-0.02117 -0.03966,-0.03969 -0.05826,-0.05821 a 1.2279577,1.2279577 0 0 1 0.05826,-1.733021 1.3676312,1.3676312 0 0 1 1.873271,0 l 3.291401,3.439584 V 84.02999 a 1.3281924,1.3281924 0 0 1 2.653715,0 v 8.868834 l 3.288816,-3.439584 a 1.3708856,1.3708856 0 0 1 1.875856,0 c 0.0186,0.01852 0.03708,0.03704 0.05826,0.05821 a 1.2303125,1.2303125 0 0 1 -0.05826,1.73302 z"
       fill="#ffffff"
       id="path157"
       style="stroke-width:0.264583" /><polygon
       points="590.26,605.993 590.258,653.281 577.998,653.28 572.166,605.992 "
       fill="#9f616a"
       id="polygon159"
       transform="matrix(0.26458333,0,0,0.26458333,13.920806,29.672266)" /><path
       d="m 170.92044,205.66383 -10.45918,-2.7e-4 v -0.13229 a 4.0712231,4.0712231 0 0 1 4.071,-4.07094 h 2.7e-4 l 6.3881,2.7e-4 z"
       fill="#2f2e41"
       id="path161"
       style="stroke-width:0.264583" /><polygon
       points="509.337,607.194 497.121,652.877 485.277,649.71 491.857,602.52 "
       fill="#9f616a"
       id="polygon163"
       transform="matrix(0.26458333,0,0,0.26458333,13.920806,29.672266)" /><path
       d="m 145.43772,205.66383 -10.10417,-2.70193 0.0342,-0.12779 a 4.0712257,4.0712257 0 0 1 4.98437,-2.8813 l 2.5e-4,7e-5 6.17127,1.65026 z"
       fill="#2f2e41"
       id="path165"
       style="stroke-width:0.264583" /><polygon
       points="504.606,397.113 597.311,388.269 607.58,400.199 594.299,642.642 565.931,642.642 551.628,456.091 507.282,647.645 477.79,640.412 "
       fill="#2f2e41"
       id="polygon167"
       transform="matrix(0.26458333,0,0,0.26458333,13.920806,29.672266)" /><path
       d="m 149.24512,90.987873 7.47336,-3.748442 11.4927,0.202017 9.89004,5.060778 -5.62694,28.102314 2.43069,14.65255 h -2e-5 a 59.936689,59.936689 0 0 1 -28.66366,0.23593 l -0.0753,-0.0179 c 0,0 5.58637,-19.82165 3.20824,-25.8706 z"
       fill="#cbcbcb"
       id="path169"
       style="stroke-width:0.264583" /><path
       d="m 170.86567,76.01034 a 8.4672989,8.4672989 0 1 0 0,0.06266 q 1.1e-4,-0.03133 0,-0.06266 z"
       fill="#9f616a"
       id="path171"
       style="stroke-width:0.264583" /><path
       d="m 158.6068,71.172124 a 2.4022103,2.4022103 0 0 1 1.61842,-0.652875 c 0.90462,-0.02939 2.26008,0.291859 2.83693,1.027271 0.46362,0.591058 0.4858,1.40425 0.48757,2.15545 l 0.005,2.073216 c 0.001,0.61336 0.009,1.252895 0.28758,1.79931 0.27867,0.546415 0.91834,0.96144 1.50274,0.775171 0.69325,-0.220967 0.99808,-1.142349 1.70656,-1.308029 0.53208,-0.124425 1.07863,0.26439 1.31122,0.758854 a 3.2911653,3.2911653 0 0 1 0.18938,1.610254 c -0.0671,1.085586 -1.62404,1.51623 -1.84447,2.581305 -0.12753,0.616082 -0.574,1.845066 0,1.5875 2.64583,-0.264584 3.80716,-1.809991 5.01812,-3.264766 l 2.73118,-3.281066 a 3.2071098,3.2071098 0 0 0 0.70342,-1.138356 3.1619401,3.1619401 0 0 0 0.0722,-0.907706 q -0.0223,-1.223275 -0.0664,-2.445885 c -0.0257,-0.712166 -0.20491,-1.610683 -0.90236,-1.75704 -0.36274,-0.07612 -0.84281,0.05662 -1.03455,-0.26057 a 0.71984657,0.71984657 0 0 1 -0.0328,-0.505618 c 0.15392,-0.813946 0.41378,-1.665288 0.1459,-2.449142 -0.40402,-1.182185 -1.7952,-1.667283 -3.02446,-1.890324 -1.22925,-0.223041 -2.6092,-0.414928 -3.38077,-1.397508 a 10.715831,10.715831 0 0 0 -0.67105,-0.94324 2.6341334,2.6341334 0 0 0 -1.25799,-0.634489 6.9529245,6.9529245 0 0 0 -4.57203,0.405773 c -0.59463,0.271341 -1.19191,0.636741 -1.84421,0.5954 -0.67756,-0.04295 -1.25631,-0.51979 -1.92524,-0.635794 -1.08048,-0.187383 -2.11342,0.622104 -2.64588,1.580766 -0.65977,1.187871 -0.72032,2.814598 0.21173,3.803343 0.46499,0.493284 1.15875,0.832115 1.35186,1.481932 0.0786,0.264501 0.0603,0.549383 0.12987,0.816406 a 1.4737556,1.4737556 0 0 0 1.18763,1.027546 c 0.66068,0.10763 1.21968,-0.195058 1.70504,-0.607089 z"
       fill="#2f2e41"
       id="path173"
       style="stroke-width:0.264583" /><path
       d="m 148.21364,111.47738 a 3.0326303,3.0326303 0 0 0 4.40542,1.48881 l 15.1747,8.02166 0.49139,-3.6966 -14.7451,-8.69491 a 3.0490795,3.0490795 0 0 0 -5.32641,2.88104 z"
       fill="#9f616a"
       id="path175"
       style="stroke-width:0.264583" /><path
       d="m 168.43545,112.11653 a 3.0326541,3.0326541 0 0 1 -4.62443,0.48883 l -16.56216,4.50707 0.14417,-4.6933 16.47545,-4.27925 a 3.0490795,3.0490795 0 0 1 4.56697,3.97665 z"
       fill="#9f616a"
       id="path177"
       style="stroke-width:0.264583" /><path
       d="m 174.87195,92.704548 3.22928,-0.202314 c 0,0 3.78081,4.988772 1.6837,10.402316 0,0 0.36331,19.44651 -8.01065,18.64773 -8.37396,-0.79877 -11.01979,-0.79877 -11.01979,-0.79877 l 2.51354,-7.01146 5.62313,-1.73614 c 0,0 -1.73305,-7.64494 1.54743,-10.82575 z"
       fill="#cbcbcb"
       id="path179"
       style="stroke-width:0.264583" /><path
       d="m 151.55363,92.533715 -0.45643,-2.339584 c 0,0 -6.73091,-0.158123 -8.06181,10.041249 0,0 -6.05285,15.26443 -0.12,17.22982 5.93285,1.96539 12.45889,0 12.45889,0 l -0.49157,-6.73148 -6.528,-1.33227 c 0,0 3.37225,-4.36279 1.53601,-8.14703 z"
       fill="#cbcbcb"
       id="path181"
       style="stroke-width:0.264583" /></g></svg>
