<?xml version="1.0" encoding="UTF-8"?>
<svg width="210mm" height="297mm" version="1.1" viewBox="0 0 210 297" xml:space="preserve" xmlns="http://www.w3.org/2000/svg"><path d="m76.41 54.679h-0.78782v-21.582a12.491 12.491 0 0 0-12.491-12.491h-45.725a12.491 12.491 0 0 0-12.491 12.491v118.4a12.491 12.491 0 0 0 12.491 12.491h45.725a12.491 12.491 0 0 0 12.491-12.491v-81.457h0.78784z" stroke-width=".26458"/><rect x="9.024" y="23.48" width="62.504" height="9.9064" ry="1.4672" stroke-width=".13932"/><path d="m63.618 23.344h-5.9668c1.1886 2.778-0.95492 5.8186-4.102 5.8188h-26.187c-3.1471-2.25e-4 -5.2906-3.0408-4.102-5.8188l-6.0733 0.13871c-5.1503-1.1e-5 -8.8251 3.8415-8.8251 8.7514v112.67c-3.5e-6 4.9099 4.1751 8.8901 9.3254 8.8901h45.931c5.1503 0 9.3254-3.9802 9.3254-8.8901v-112.67c5e-6 -4.9099-4.1751-8.8901-9.3254-8.8901z" fill="#250c77" stroke-width=".25825"/><rect x="8.0179" y="29.876" width="65.018" height="11.656" ry="1.7264" fill="#250c77" stroke-width=".15413"/><rect x="8.2942" y="38.983" width="65.018" height="3.4072" ry=".50463" fill="#eb6800" stroke-width=".08333"/><rect transform="scale(1,-1)" x="7.9171" y="-156.83" width="65.018" height="11.656" ry="1.7264" fill="#250c77" stroke-width=".15413"/><rect transform="scale(1,-1)" x="8.1934" y="-147.72" width="65.018" height="3.4072" ry=".50463" fill="#eb6800" stroke-width=".08333"/><rect x="8.3893" y="42.312" width="64.471" height="102.2" ry="0" fill="#fff" stroke-width=".16889"/><circle cx="40.662" cy="89.724" r="22.343" fill="#eb6800" stroke-width=".26458" data-name="Ellipse 44"/><path d="m47.283 91.25-5.5562 5.7229a1.2632 1.2632 0 0 1-0.92604 0.37306h-0.01847a1.2736 1.2736 0 0 1-0.92875-0.37306l-5.5535-5.7229c-0.01847-0.02117-0.03966-0.03969-0.05826-0.05821a1.228 1.228 0 0 1 0.05826-1.733 1.3676 1.3676 0 0 1 1.8733 0l3.2914 3.4396v-8.8688a1.3282 1.3282 0 0 1 2.6537 0v8.8688l3.2888-3.4396a1.3709 1.3709 0 0 1 1.8759 0c0.0186 0.01852 0.03708 0.03704 0.05826 0.05821a1.2303 1.2303 0 0 1-0.05826 1.733z" fill="#fff" stroke-width=".26458"/><polygon transform="matrix(.26458 0 0 .26458 13.921 29.672)" points="590.26 605.99 590.26 653.28 578 653.28 572.17 605.99" fill="#9f616a"/><path d="m170.92 205.66-10.459-2.7e-4v-0.13229a4.0712 4.0712 0 0 1 4.071-4.0709h2.7e-4l6.3881 2.7e-4z" fill="#2f2e41" stroke-width=".26458"/><polygon transform="matrix(.26458 0 0 .26458 13.921 29.672)" points="509.34 607.19 497.12 652.88 485.28 649.71 491.86 602.52" fill="#9f616a"/><path d="m145.44 205.66-10.104-2.7019 0.0342-0.12779a4.0712 4.0712 0 0 1 4.9844-2.8813l2.5e-4 7e-5 6.1713 1.6503z" fill="#2f2e41" stroke-width=".26458"/><polygon transform="matrix(.26458 0 0 .26458 13.921 29.672)" points="504.61 397.11 597.31 388.27 607.58 400.2 594.3 642.64 565.93 642.64 551.63 456.09 507.28 647.64 477.79 640.41" fill="#2f2e41"/><path d="m149.25 90.988 7.4734-3.7484 11.493 0.20202 9.89 5.0608-5.6269 28.102 2.4307 14.653h-2e-5a59.937 59.937 0 0 1-28.664 0.23593l-0.0753-0.0179s5.5864-19.822 3.2082-25.871z" fill="#cbcbcb" stroke-width=".26458"/><path d="m170.87 76.01a8.4673 8.4673 0 1 0 0 0.06266q1.1e-4 -0.03133 0-0.06266z" fill="#9f616a" stroke-width=".26458"/><path d="m158.61 71.172a2.4022 2.4022 0 0 1 1.6184-0.65288c0.90462-0.02939 2.2601 0.29186 2.8369 1.0273 0.46362 0.59106 0.4858 1.4042 0.48757 2.1554l5e-3 2.0732c1e-3 0.61336 9e-3 1.2529 0.28758 1.7993 0.27867 0.54642 0.91834 0.96144 1.5027 0.77517 0.69325-0.22097 0.99808-1.1423 1.7066-1.308 0.53208-0.12442 1.0786 0.26439 1.3112 0.75885a3.2912 3.2912 0 0 1 0.18938 1.6103c-0.0671 1.0856-1.624 1.5162-1.8445 2.5813-0.12753 0.61608-0.574 1.8451 0 1.5875 2.6458-0.26458 3.8072-1.81 5.0181-3.2648l2.7312-3.2811a3.2071 3.2071 0 0 0 0.70342-1.1384 3.1619 3.1619 0 0 0 0.0722-0.90771q-0.0223-1.2233-0.0664-2.4459c-0.0257-0.71217-0.20491-1.6107-0.90236-1.757-0.36274-0.07612-0.84281 0.05662-1.0346-0.26057a0.71985 0.71985 0 0 1-0.0328-0.50562c0.15392-0.81395 0.41378-1.6653 0.1459-2.4491-0.40402-1.1822-1.7952-1.6673-3.0245-1.8903-1.2292-0.22304-2.6092-0.41493-3.3808-1.3975a10.716 10.716 0 0 0-0.67105-0.94324 2.6341 2.6341 0 0 0-1.258-0.63449 6.9529 6.9529 0 0 0-4.572 0.40577c-0.59463 0.27134-1.1919 0.63674-1.8442 0.5954-0.67756-0.04295-1.2563-0.51979-1.9252-0.63579-1.0805-0.18738-2.1134 0.6221-2.6459 1.5808-0.65977 1.1879-0.72032 2.8146 0.21173 3.8033 0.46499 0.49328 1.1588 0.83212 1.3519 1.4819 0.0786 0.2645 0.0603 0.54938 0.12987 0.81641a1.4738 1.4738 0 0 0 1.1876 1.0275c0.66068 0.10763 1.2197-0.19506 1.705-0.60709z" fill="#2f2e41" stroke-width=".26458"/><path d="m148.21 111.48a3.0326 3.0326 0 0 0 4.4054 1.4888l15.175 8.0217 0.49139-3.6966-14.745-8.6949a3.0491 3.0491 0 0 0-5.3264 2.881z" fill="#9f616a" stroke-width=".26458"/><path d="m168.44 112.12a3.0327 3.0327 0 0 1-4.6244 0.48883l-16.562 4.5071 0.14417-4.6933 16.475-4.2792a3.0491 3.0491 0 0 1 4.567 3.9766z" fill="#9f616a" stroke-width=".26458"/><path d="m174.87 92.705 3.2293-0.20231s3.7808 4.9888 1.6837 10.402c0 0 0.36331 19.447-8.0106 18.648-8.374-0.79877-11.02-0.79877-11.02-0.79877l2.5135-7.0115 5.6231-1.7361s-1.733-7.6449 1.5474-10.826z" fill="#cbcbcb" stroke-width=".26458"/><path d="m151.55 92.534-0.45643-2.3396s-6.7309-0.15812-8.0618 10.041c0 0-6.0528 15.264-0.12 17.23s12.459 0 12.459 0l-0.49157-6.7315-6.528-1.3323s3.3722-4.3628 1.536-8.147z" fill="#cbcbcb" stroke-width=".26458"/></svg>
